<?xml version="1.0" encoding="utf-8"?>
<!-- Generator: Adobe Illustrator 15.1.0, SVG Export Plug-In . SVG Version: 6.00 Build 0)  -->
<!DOCTYPE svg PUBLIC "-//W3C//DTD SVG 1.1//EN" "http://www.w3.org/Graphics/SVG/1.1/DTD/svg11.dtd">
<svg version="1.1" id="Layer_1" xmlns="http://www.w3.org/2000/svg" xmlns:xlink="http://www.w3.org/1999/xlink" x="0px" y="0px"
	 width="100px" height="100px" viewBox="0 0 100 100" enable-background="new 0 0 100 100" xml:space="preserve">
<rect width="100" height="100"/>
<g>
	<path fill="#FFFFFF" d="M8.51,43.278h6.641v3.061H12.07V58.2h3.081v3.061H8.51V43.278z"/>
	<path fill="#FFFFFF" d="M20.991,43.618h4.301L30.493,57.9h-4.561l-0.6-2.04h-4.541l-0.64,2.04h-4.421L20.991,43.618z M24.452,52.8
		l-1.28-4.401h-0.04l-1.38,4.401H24.452z"/>
	<path fill="#FFFFFF" d="M31.469,43.618h7.222c4.761,0,6.441,3.521,6.441,7.122c0,4.381-2.32,7.161-7.301,7.161h-6.361V43.618z
		 M35.87,54.24h1.721c2.74,0,3.141-2.221,3.141-3.561c0-0.9-0.28-3.4-3.461-3.4h-1.4V54.24z"/>
	<path fill="#FFFFFF" d="M47.01,43.618h6.262l2.04,8.402h0.04l2.041-8.402h6.261V57.9h-4.161v-9.162h-0.04l-2.48,9.162h-3.28
		l-2.48-9.162h-0.04V57.9H47.01V43.618z"/>
	<path fill="#FFFFFF" d="M65.909,43.618h4.4V57.9h-4.4V43.618z"/>
	<path fill="#FFFFFF" d="M72.589,43.618h4.501l4.161,7.641h0.04v-7.641h4.161V57.9h-4.281l-4.381-7.801h-0.04V57.9h-4.161V43.618z"
		/>
	<path fill="#FFFFFF" d="M94.01,61.261h-6.642V58.2h3.081V46.338h-3.081v-3.061h6.642V61.261z"/>
</g>
</svg>
